<?xml version="1.0" encoding="UTF-8" standalone="no"?>
<!DOCTYPE svg PUBLIC "-//W3C//DTD SVG 1.1//EN" "http://www.w3.org/Graphics/SVG/1.1/DTD/svg11.dtd">
<svg width="100%" height="100%" viewBox="0 0 6740 3593" version="1.1" xmlns="http://www.w3.org/2000/svg" xmlns:xlink="http://www.w3.org/1999/xlink" xml:space="preserve" xmlns:serif="http://www.serif.com/" style="fill-rule:evenodd;clip-rule:evenodd;stroke-linecap:round;stroke-linejoin:round;stroke-miterlimit:1.5;">
    <g transform="matrix(1,0,0,1,-1335.68,-890.705)">
        <g id="design_board" transform="matrix(2.03346,0,0,1.41529,-1401.82,935.69)">
            <rect x="1346.23" y="-31.785" width="3314.08" height="2538.12"/>
            <clipPath id="_clip1">
                <rect x="1346.23" y="-31.785" width="3314.08" height="2538.12"/>
            </clipPath>
            <g clip-path="url(#_clip1)">
                <g transform="matrix(0.475015,-0.182874,0.12728,0.682495,436.978,220.787)">
                    <rect x="1733.02" y="1200.47" width="4545.28" height="2368.56" style="fill:none;stroke:white;stroke-width:28.06px;"/>
                </g>
                <g id="Doom_neo">
                    <g id="O" transform="matrix(0.491772,0,0,0.706571,689.376,-661.131)">
                        <path d="M2732.2,1925.98L2838.7,1813.51L3455.25,1643.74L3583.14,1697.41L3907.92,2885.11L3574.89,3303.32L3061.04,3116.61L2732.2,1925.98ZM2821.36,1948.21L2881.46,1884.74C2881.46,1884.74 3449.81,1728.24 3449.81,1728.24C3449.81,1728.24 3516.23,1756.11 3516.23,1756.11C3516.23,1756.11 3820.01,2867.04 3820.01,2867.04C3820.01,2867.04 3548.13,3208.46 3548.13,3208.46C3548.13,3208.46 3127.18,3055.5 3127.18,3055.5C3127.18,3055.5 2821.36,1948.21 2821.36,1948.21L2821.36,1948.21ZM3089.74,1964.23C3047.24,1976 3022.26,2019.94 3033.9,2062.48L3245.78,2836.64C3252.66,2861.79 3271.37,2882.01 3295.91,2890.83L3549.79,2982.03C3577.88,2992.12 3609.25,2985.73 3631.16,2965.47C3653.08,2945.21 3661.9,2914.43 3654.04,2885.64L3401.68,1961.23C3396.08,1940.71 3382.54,1923.27 3364.05,1912.75C3345.56,1902.24 3323.64,1899.51 3303.14,1905.18L3089.74,1964.23ZM3111.09,2041.36L3324.48,1982.31L3576.84,2906.71L3322.96,2815.52L3111.09,2041.36Z" style="fill:white;"/>
                    </g>
                    <g id="O1" serif:id="O" transform="matrix(0.491772,0,0,0.706571,689.376,-661.131)">
                        <path d="M3732.05,1561.74L4348.41,1391.16L4498.38,1434.92L4825.32,2625.77L4480.13,3047.16L3980.59,2860.23L3653.22,1670.97L3732.05,1561.74ZM3780.49,1631.36L4347.83,1474.35C4347.83,1474.35 4433.05,1499.22 4433.05,1499.22C4433.05,1499.22 4737.2,2607.06 4737.2,2607.06C4737.2,2607.06 4454.53,2952.14 4454.53,2952.14C4454.53,2952.14 4046.89,2799.6 4046.89,2799.6C4046.89,2799.6 3740.55,1686.7 3740.55,1686.7L3780.49,1631.36ZM4002.08,1710.79C3959.75,1722.72 3934.97,1766.57 3946.6,1808.98L4199.74,2732.22C4207.68,2761.18 4231.17,2783.25 4260.56,2789.39C4289.95,2795.53 4320.31,2784.69 4339.18,2761.33L4509.63,2550.23C4525.83,2530.18 4531.37,2503.55 4524.52,2478.7L4311.99,1707.12C4306.33,1686.58 4292.72,1669.15 4274.16,1658.68C4255.61,1648.21 4233.65,1645.57 4213.14,1651.35L4002.08,1710.79ZM4023.78,1787.82L4234.84,1728.37L4447.38,2499.96L4276.92,2711.06L4023.78,1787.82Z" style="fill:white;"/>
                    </g>
                    <g id="D" transform="matrix(0.491772,0,0,0.706571,689.376,-661.131)">
                        <path d="M1773.45,2099.53C1784.74,2102.58 1839.27,2133.73 1839.27,2133.73L2347.82,4001.08L2334.09,4078.59L3065.51,3193.11L3002.55,3167.93L2665.69,1949.56L2495.68,1896.04C2495.68,1896.04 1815.49,2091.73 1773.45,2099.53ZM2940.66,3218.62L2396.93,3876.86L1924.34,2141.56C2105.16,2091.19 2408.83,2004.2 2494.62,1979.6C2494.61,1979.6 2600.15,2012.82 2600.15,2012.82C2600.15,2012.82 2925.42,3189.25 2925.42,3189.25C2928.43,3200.14 2933.66,3210.12 2940.66,3218.62ZM2193.67,2208.43C2151.32,2220.29 2126.47,2264.11 2138.05,2306.55L2389.5,3228.56C2397.45,3257.69 2421.12,3279.87 2450.7,3285.91C2480.28,3291.95 2510.75,3280.82 2529.48,3257.13L2693.89,3049.2C2709.74,3029.15 2715.07,3002.74 2708.21,2978.12L2493.83,2207.63C2488.14,2187.16 2474.53,2169.8 2456.03,2159.36C2437.52,2148.93 2415.62,2146.29 2395.16,2152.02L2193.67,2208.43ZM2215.25,2285.49L2416.74,2229.08L2631.12,2999.57L2466.71,3207.5L2215.25,2285.49ZM1773.45,2099.53C1772.78,2099.65 1772.27,2099.73 1771.93,2099.76C1771.59,2099.78 1771.42,2099.76 1771.42,2099.69C1771.42,2099.2 1772.14,2099.18 1773.45,2099.53Z" style="fill:white;"/>
                    </g>
                    <g id="M" transform="matrix(0.491772,0,0,0.706571,689.376,-661.131)">
                        <path d="M4501.66,1352.39L4924.25,1235.57L5133.39,1560.09L5153.58,1170.66L5604.09,1047.84L5532.45,1137.93C5731.76,1789.01 5910.86,2575.84 6036.15,2965.87C6057.48,3032.28 6099.89,3080.47 6133.93,3120.37L5653.93,2950.76L5687.39,2903.45L5448.55,2046.14L5452.01,2788.06L5033.16,2043.84L5232.78,2808.83L4856.37,2656.21L4899.75,2603.6L4567.93,1402.32L4501.66,1352.39ZM5458.69,1170.42C5653.95,1810.04 5829.66,2577.73 5954.16,2971.97L5767.35,2905.96C5767.63,2897.95 5766.68,2889.87 5764.48,2881.97L5525.63,2024.67C5514.88,1986.06 5477.22,1961.36 5437.53,1966.88C5397.83,1972.4 5368.34,2006.44 5368.53,2046.52L5370.55,2480.16C5370.55,2480.16 5102.9,2004.59 5102.9,2004.59C5083.17,1969.53 5040.49,1954.57 5003.19,1969.64C4965.9,1984.71 4945.58,2025.12 4955.73,2064.04L5115.1,2674.77L4978.2,2619.26C4980.64,2607.18 4980.26,2594.52 4976.89,2582.29L4648.85,1394.73L4888.86,1328.38C4947.41,1419.22 5066.12,1603.43 5066.12,1603.43C5084.94,1632.62 5120.43,1646.35 5153.98,1637.41C5187.54,1628.47 5211.5,1598.91 5213.3,1564.23L5230.49,1232.64L5458.69,1170.42Z" style="fill:white;"/>
                    </g>
                </g>
                <g id="Knife_obj" transform="matrix(0.303371,0.549132,-0.277614,0.316609,2144.61,-3245.89)">
                    <clipPath id="_clip2">
                        <rect x="5440.75" y="819.007" width="3175.1" height="779.535"/>
                    </clipPath>
                    <g clip-path="url(#_clip2)">
                        <g id="knife_hundle" transform="matrix(1.1078,1.32577,-0.920667,1.45808,4932.3,-4421.87)">
                            <g id="knife_hundle_ribs" transform="matrix(1,0,0,1,0.226111,-31.7851)">
                                <path d="M3132.58,964.454C3130.26,945.56 3136.96,937.372 3154.93,942.576L3249.11,1027.71C3248.8,1043.24 3241.06,1050.09 3225.8,1048.16L3132.58,964.454Z" style="fill:none;stroke:rgb(242,255,0);stroke-width:10.32px;stroke-linecap:square;stroke-linejoin:miter;stroke-miterlimit:1;"/>
                            </g>
                            <g id="knife_hundle_ribs1" serif:id="knife_hundle_ribs" transform="matrix(1,0,0,1,43.9151,-70.8301)">
                                <path d="M3132.58,964.454C3130.26,945.56 3136.96,937.372 3154.93,942.576L3249.11,1027.71C3248.8,1043.24 3241.06,1050.09 3225.8,1048.16L3132.58,964.454Z" style="fill:none;stroke:rgb(242,255,0);stroke-width:10.32px;stroke-linecap:square;stroke-linejoin:miter;stroke-miterlimit:1;"/>
                            </g>
                            <g id="knife_hundle_ribs2" serif:id="knife_hundle_ribs" transform="matrix(1,0,0,1,89.2089,-112.445)">
                                <path d="M3132.58,964.454C3130.26,945.56 3136.96,937.372 3154.93,942.576L3249.11,1027.71C3248.8,1043.24 3241.06,1050.09 3225.8,1048.16L3132.58,964.454Z" style="fill:none;stroke:rgb(242,255,0);stroke-width:10.32px;stroke-linecap:square;stroke-linejoin:miter;stroke-miterlimit:1;"/>
                            </g>
                            <g id="knife_hundle_outline" transform="matrix(1,0,0,1,0.226111,-31.7851)">
                                <path d="M3271.89,776.077C3387.94,716.041 3492.47,812.921 3441.07,909.646L3181.26,1143.33C3066.25,1188.12 2974.26,1081.18 3031.69,992.31L3271.89,776.077Z" style="fill:none;stroke:rgb(0,59,255);stroke-width:10.32px;stroke-linecap:square;stroke-linejoin:miter;stroke-miterlimit:1;"/>
                            </g>
                        </g>
                        <g id="knife_body" transform="matrix(1.1078,1.32577,-0.920667,1.45808,4954.37,-4467.06)">
                            <path d="M2363.79,1601.46L2349.32,1514.78L3478.75,501.285C3658.9,398.254 3855.47,564.526 3737.8,737.017L2610.73,1749.17L2517.36,1736.14L3151.79,1164.15L3199.16,1147.53C3234.63,1115.99 3276.64,1082.06 3311.95,1050.34C3335.38,1029.31 3421.19,951.893 3449.99,922.995C3460.64,912.301 3458.02,897.747 3466.4,886.001C3478.5,869.035 3498.81,852.522 3512.54,839.846C3529.42,824.267 3548.96,809 3566.14,793.748C3587.81,774.505 3614.39,749.488 3636.21,730.418L3485.08,593.048C3459.62,615.902 3425.02,645.138 3399.24,667.618C3373.32,690.214 3350.4,714.2 3324.13,736.384C3307.79,750.182 3280.14,751.22 3263.8,764.828C3223.95,798.014 3187.46,832.417 3148.42,866.555C3125.11,886.932 3043.46,957.812 3022.11,979.16C3008.39,992.88 3006.23,1024.79 2991.74,1037.9C2885.32,1134.29 2782.24,1222.38 2675.28,1318.18C2567.61,1414.63 2471.49,1505.03 2363.79,1601.46Z" style="fill:none;stroke:rgb(255,0,25);stroke-width:10.32px;stroke-linecap:square;stroke-linejoin:miter;stroke-miterlimit:1;"/>
                        </g>
                        <g id="knife_blade" transform="matrix(1.10904,1.32381,-0.919305,1.45971,4920.37,-4428.65)">
                            <g transform="matrix(1,0,0,1,0.226111,-31.7851)">
                                <path d="M2344.36,1577.27L2128.1,1772.2L2129.22,1809.73L2349.28,1610.99L2344.36,1577.27Z" style="fill:none;stroke:rgb(255,0,25);stroke-width:10.32px;stroke-linecap:square;stroke-linejoin:miter;stroke-miterlimit:1;"/>
                            </g>
                            <g transform="matrix(1,0,0,1,0.226111,-31.7851)">
                                <path d="M2134.62,1824.65L2273.97,1700.41L2308.8,1960.51L2172.94,2083.59L2134.62,1824.65Z" style="fill:none;stroke:rgb(255,0,25);stroke-width:10.32px;stroke-linecap:square;stroke-linejoin:miter;stroke-miterlimit:1;"/>
                            </g>
                            <g transform="matrix(1,0,0,1,0.226111,-31.7851)">
                                <path d="M2281.35,1693.4L2434.21,1558.75L2469.82,1816.87L2317.73,1954.64L2281.35,1693.4Z" style="fill:none;stroke:rgb(255,0,25);stroke-width:10.32px;stroke-linecap:square;stroke-linejoin:miter;stroke-miterlimit:1;"/>
                            </g>
                            <g transform="matrix(1,0,0,1,0.226111,-31.7851)">
                                <path d="M3401.05,688.811L3412.23,761.312C3459.02,789.313 3472.4,828.486 3469.8,859.752L3614.33,731.479L3483.88,614.098L3401.05,688.811Z" style="fill:none;stroke:rgb(255,0,25);stroke-width:10.32px;stroke-linecap:square;stroke-linejoin:miter;stroke-miterlimit:1;"/>
                            </g>
                            <g transform="matrix(1,0,0,1,0.226111,-31.7851)">
                                <path d="M3345.82,740.976L3393.69,694.102L3400.3,752.816C3387.54,747.745 3380.27,745.021 3345.82,740.976Z" style="fill:none;stroke:rgb(255,0,25);stroke-width:10.32px;stroke-linecap:square;stroke-linejoin:miter;stroke-miterlimit:1;"/>
                            </g>
                            <g transform="matrix(1,0,0,1,0.226111,-31.7851)">
                                <path d="M3109.13,1168.29L3110.89,1181.05L3125.33,1168.92L3109.13,1168.29Z" style="fill:none;stroke:rgb(255,0,25);stroke-width:10.32px;stroke-linecap:square;stroke-linejoin:miter;stroke-miterlimit:1;"/>
                            </g>
                            <g transform="matrix(1,0,0,1,0.226111,-31.7851)">
                                <path d="M2922.44,1120.66L2950.32,1326.61L3100.92,1191.1L3100.06,1166C3043.34,1149.26 3000.18,1119.81 2996.76,1053.04L2922.44,1120.66Z" style="fill:none;stroke:rgb(255,0,25);stroke-width:10.32px;stroke-linecap:square;stroke-linejoin:miter;stroke-miterlimit:1;"/>
                            </g>
                            <g transform="matrix(1,0,0,1,0.226111,-31.7851)">
                                <path d="M2442.9,1549.15L2593.25,1415.92L2621.36,1622.98L2486.69,1746.41L2536.58,1756.96L2478.1,1810.35L2442.9,1549.15Z" style="fill:none;stroke:rgb(255,0,25);stroke-width:10.32px;stroke-linecap:square;stroke-linejoin:miter;stroke-miterlimit:1;"/>
                            </g>
                            <g transform="matrix(1,0,0,1,0.226111,-31.7851)">
                                <path d="M2601.52,1408.43L2752.9,1271.54L2781.86,1478.17L2631.23,1614.11L2601.52,1408.43Z" style="fill:none;stroke:rgb(255,0,25);stroke-width:10.32px;stroke-linecap:square;stroke-linejoin:miter;stroke-miterlimit:1;"/>
                            </g>
                            <g transform="matrix(1,0,0,1,0.226111,-31.7851)">
                                <path d="M2762.12,1262.87L2912.79,1128.55L2941.71,1334.4L2791.33,1470.46L2762.12,1262.87Z" style="fill:none;stroke:rgb(255,0,25);stroke-width:10.32px;stroke-linecap:square;stroke-linejoin:miter;stroke-miterlimit:1;"/>
                            </g>
                        </g>
                    </g>
                </g>
            </g>
        </g>
    </g>
</svg>
