<?xml version="1.0" standalone="no"?>
<!DOCTYPE svg PUBLIC "-//W3C//DTD SVG 20010904//EN"
 "http://www.w3.org/TR/2001/REC-SVG-20010904/DTD/svg10.dtd">
<svg version="1.0" xmlns="http://www.w3.org/2000/svg"
 width="840.000000pt" height="566.000000pt" viewBox="0 0 840.000000 566.000000"
 preserveAspectRatio="xMidYMid meet">

<g transform="translate(0.000000,566.000000) scale(0.100000,-0.100000)"
fill="#000000" stroke="none">
<path d="M4176 5113 c-13 -13 -5 -50 23 -105 16 -32 28 -58 26 -58 -2 0 7 -11
21 -25 14 -14 27 -25 29 -25 7 0 5 118 -3 170 -5 28 -10 40 -15 33 -11 -17
-42 -16 -60 2 -8 8 -17 11 -21 8z"/>
<path d="M4456 5044 c-11 -74 9 -154 38 -154 9 0 15 20 20 61 9 92 8 99 -14
99 -10 0 -23 8 -28 17 -8 13 -11 8 -16 -23z"/>
<path d="M4707 4685 c-9 -19 -15 -35 -12 -35 7 0 37 61 33 66 -3 2 -12 -12
-21 -31z"/>
<path d="M4413 4393 c9 -2 17 -9 17 -14 0 -5 7 -9 15 -9 23 0 18 17 -7 24 -13
3 -27 5 -33 5 -5 -1 -2 -3 8 -6z"/>
<path d="M4363 4353 c9 -2 25 -2 35 0 9 3 1 5 -18 5 -19 0 -27 -2 -17 -5z"/>
<path d="M3866 4337 c3 -10 9 -15 12 -12 3 3 0 11 -7 18 -10 9 -11 8 -5 -6z"/>
<path d="M3925 4332 c-5 -4 -17 -16 -25 -27 -11 -15 -7 -14 13 4 24 22 32 31
25 31 -2 0 -7 -4 -13 -8z"/>
<path d="M4092 4133 c-12 -32 -26 -79 -31 -104 -6 -26 -15 -58 -21 -73 -14
-39 6 -23 29 22 17 34 55 201 47 209 -2 2 -13 -23 -24 -54z"/>
<path d="M4721 4086 c-7 -8 -10 -20 -6 -26 3 -5 -1 -13 -10 -16 -9 -4 -14 -13
-11 -20 3 -8 1 -14 -5 -14 -6 0 -7 -5 -3 -12 4 -6 3 -8 -3 -5 -13 8 -47 -16
-42 -30 3 -6 32 -2 79 11 41 11 68 22 58 24 -15 3 -25 26 -35 76 -5 27 -8 29
-22 12z"/>
<path d="M4810 4046 c-13 -41 -11 -49 8 -37 16 10 23 44 12 61 -5 8 -12 1 -20
-24z"/>
<path d="M5130 3731 c0 -5 -15 -18 -34 -29 -26 -15 -37 -17 -46 -9 -10 9 -11
9 -8 -3 5 -17 64 -21 86 -6 7 5 12 4 12 -3 0 -18 53 -40 66 -27 8 8 3 21 -19
48 -28 35 -57 50 -57 29z m34 -10 c3 -5 -1 -11 -9 -15 -9 -3 -15 0 -15 9 0 16
16 20 24 6z"/>
<path d="M4260 3537 c-58 -20 -65 -25 -68 -51 l-4 -29 77 5 c93 6 110 18 90
66 -8 17 -18 32 -22 32 -4 -1 -37 -11 -73 -23z"/>
<path d="M4838 3524 c-5 -4 -8 -20 -8 -35 0 -21 10 -34 44 -58 38 -25 47 -27
57 -15 15 19 -5 67 -40 95 -24 19 -26 19 -32 2 -6 -17 -6 -17 -10 0 -2 11 -7
15 -11 11z"/>
<path d="M4078 3349 c-9 -5 -15 -16 -12 -24 5 -11 17 -13 52 -9 38 4 44 3 29
-6 -15 -10 -47 -66 -47 -84 0 -7 123 -46 146 -46 13 0 30 10 38 22 11 16 16
18 16 7 0 -8 -5 -20 -12 -27 -9 -9 -8 -12 5 -12 21 0 34 64 19 102 -5 15 -9
28 -7 28 19 0 98 -47 114 -68 11 -15 21 -21 21 -13 0 22 -70 81 -129 109 -42
19 -75 26 -135 28 -45 2 -89 -1 -98 -7z m102 -79 c0 -13 -7 -20 -20 -20 -13 0
-20 7 -20 20 0 13 7 20 20 20 13 0 20 -7 20 -20z"/>
<path d="M4748 3239 l-58 -29 0 -55 c0 -49 4 -60 33 -91 26 -29 38 -35 55 -30
54 18 70 123 26 175 l-26 31 32 0 c41 0 87 -24 95 -50 8 -26 29 -21 33 7 2 13
-8 30 -28 47 -42 35 -89 33 -162 -5z m-8 -50 c0 -24 -23 -21 -28 4 -2 10 3 17
12 17 10 0 16 -9 16 -21z"/>
<path d="M4246 2769 c59 -60 110 -86 188 -95 56 -7 58 -6 46 13 -8 11 -34 25
-61 32 -26 7 -87 32 -135 56 l-87 44 49 -50z"/>
<path d="M4620 2690 c0 -12 8 -12 35 0 18 8 17 9 -7 9 -16 1 -28 -3 -28 -9z"/>
<path d="M4677 2596 c4 -17 -3 -29 -22 -45 -36 -27 -50 -27 -80 4 -14 13 -25
20 -25 16 0 -5 -19 -11 -42 -15 -29 -5 -38 -10 -31 -17 15 -15 -26 -107 -50
-115 -10 -3 -33 -19 -51 -34 -31 -27 -32 -32 -28 -82 3 -41 0 -57 -12 -67 -14
-12 -15 -9 -11 35 4 36 3 43 -4 28 -23 -53 -83 -68 -138 -34 -46 28 -66 63
-58 100 8 36 -14 41 -45 10 l-20 -20 32 -36 c18 -20 54 -49 80 -66 49 -32 60
-48 32 -48 -16 0 -52 -30 -37 -30 4 0 0 -5 -10 -11 -9 -6 -14 -15 -11 -21 15
-25 -39 22 -62 53 -24 34 -31 64 -15 73 4 3 6 18 3 32 -5 26 -6 26 -18 9 -8
-10 -14 -27 -14 -37 0 -25 -50 -18 -113 15 -26 14 -45 21 -42 16 4 -5 1 -25
-6 -44 l-13 -36 -61 6 c-136 13 -142 17 -110 78 12 24 12 29 0 33 -8 3 -22 4
-32 1 -14 -4 -12 -5 6 -6 18 -1 22 -5 16 -18 -4 -10 -9 -40 -11 -66 -4 -59 -9
-67 -34 -60 -17 5 -20 14 -20 60 0 30 5 63 10 73 13 25 4 29 -75 37 -68 6 -78
-1 -55 -37 8 -12 10 -10 10 9 0 22 3 23 45 18 26 -2 49 -7 52 -11 3 -3 2 -33
-3 -67 -12 -81 -34 -88 -69 -21 -26 51 -34 33 -10 -25 8 -19 15 -37 15 -39 0
-3 -28 10 -62 28 -82 43 -82 43 -73 27 5 -7 8 -33 8 -58 0 -41 0 -42 4 -8 2
20 9 37 14 37 21 0 89 -41 84 -50 -10 -16 -14 -50 -7 -50 4 0 7 -28 8 -63 1
-73 8 -140 18 -155 9 -14 -45 -25 -74 -14 -22 8 -24 14 -27 113 -2 57 -9 109
-14 114 -7 7 -8 -7 -4 -40 14 -120 13 -155 -5 -165 -10 -5 -20 -7 -23 -4 -3 3
-8 -4 -12 -16 -6 -20 -53 -70 -66 -70 -4 0 -25 -19 -48 -41 -29 -29 -47 -40
-61 -36 -10 3 -20 2 -22 -3 -2 -4 -23 -14 -48 -22 -41 -14 -45 -18 -42 -44 7
-60 38 -110 86 -138 76 -44 138 -53 241 -32 48 9 89 15 90 14 1 -2 12 -24 23
-50 19 -43 24 -48 62 -54 46 -8 70 -26 70 -54 0 -23 -35 -44 -61 -37 -26 7
-25 -27 1 -76 11 -20 20 -45 20 -54 0 -15 4 -13 20 7 18 24 21 24 47 10 34
-19 37 -56 6 -77 -19 -13 -23 -12 -44 9 -12 13 -20 17 -17 8 3 -8 16 -68 29
-132 l23 -118 59 0 c67 0 127 -23 127 -49 0 -15 -12 -17 -82 -17 -90 0 -158
-10 -158 -23 0 -5 14 -14 31 -20 23 -8 29 -15 23 -24 -5 -7 1 -2 13 12 22 25
24 25 80 13 68 -14 89 -32 101 -89 6 -24 9 -43 7 -43 -2 0 -23 11 -46 25 -24
14 -48 25 -54 24 -5 0 4 -7 20 -16 49 -25 65 -44 65 -75 l0 -28 -55 31 c-41
23 -73 33 -119 36 -72 6 -75 4 -91 -67 l-10 -45 38 -17 c53 -24 152 -24 200 1
35 18 36 18 27 0 -6 -10 -15 -21 -20 -24 -6 -3 -10 -17 -10 -31 0 -17 -4 -23
-12 -18 -7 4 -8 3 -4 -4 5 -9 -10 -13 -51 -14 l-58 -2 52 -3 c73 -5 120 16
139 64 9 21 30 53 47 71 28 29 32 40 32 90 0 31 -4 77 -8 102 -7 36 -6 43 4
33 17 -17 44 -16 58 1 7 8 19 49 28 93 8 43 24 92 34 110 l20 31 -46 83 c-25
46 -48 85 -50 88 -3 2 -9 -8 -14 -23 -13 -33 -55 -36 -71 -5 -17 30 13 73 45
65 22 -6 23 -4 13 27 -6 17 -19 50 -29 72 -33 72 -58 135 -54 135 3 0 -5 25
-16 56 l-21 57 35 31 c34 30 168 111 184 111 24 0 143 101 143 120 0 6 11 22
26 35 37 36 86 36 137 -1 23 -16 53 -37 66 -47 32 -22 91 -83 91 -93 0 -15 87
-68 121 -74 19 -3 41 -8 50 -11 26 -8 55 27 74 91 11 33 29 71 41 85 13 14 32
50 44 80 20 49 21 69 17 180 -7 188 -57 342 -151 468 -50 65 -77 80 -69 38z
m153 -295 c5 -11 10 -44 10 -75 0 -66 -27 -105 -91 -130 -39 -16 -42 -16 -74
4 -37 23 -51 51 -38 74 14 26 153 146 168 146 8 0 19 -9 25 -19z m-903 -102
c-3 -10 -1 -22 4 -25 13 -8 -5 -37 -25 -40 -9 -1 -13 2 -10 8 4 6 -2 5 -15 -1
-18 -10 -21 -9 -21 10 0 11 7 36 16 55 14 29 19 32 36 23 13 -7 18 -17 15 -30z
m-189 25 c41 -11 22 -55 -21 -47 -20 4 -27 11 -27 29 0 25 9 28 48 18z m96
-10 c20 -8 21 -34 3 -59 -10 -12 -16 -14 -21 -7 -4 7 -16 12 -28 12 -14 0 -18
5 -14 16 3 9 6 22 6 30 0 15 27 18 54 8z m189 -49 c4 -27 3 -35 -3 -25 -5 8
-10 28 -10 44 0 39 6 30 13 -19z m-63 -62 c-11 -17 -11 -17 -6 0 3 10 7 33 8
50 l1 32 4 -32 c2 -18 -1 -41 -7 -50z m-341 47 c10 -5 29 -11 42 -14 13 -3 49
-14 79 -26 30 -12 74 -26 98 -32 23 -5 42 -13 42 -18 0 -38 -204 -211 -230
-195 -5 3 -10 17 -10 31 0 14 -6 35 -14 47 -8 12 -17 51 -20 87 -4 36 -9 80
-13 98 -6 34 -2 37 26 22z m763 -63 c31 -14 84 -80 68 -85 -16 -6 -78 36 -101
69 -22 32 -13 37 33 16z m-181 -37 c24 0 49 -42 49 -82 0 -23 -3 -38 -7 -35
-3 4 -17 0 -31 -9 -13 -8 -25 -14 -27 -12 -2 2 1 23 7 46 11 42 5 78 -11 68
-4 -3 -11 -24 -15 -46 -8 -51 -20 -51 -35 0 -11 37 -32 52 -45 31 -3 -5 1 -24
9 -43 8 -19 10 -39 6 -44 -5 -5 -11 -21 -15 -35 -5 -21 -1 -30 19 -43 37 -24
54 -20 96 26 43 47 54 38 14 -11 -36 -42 -88 -58 -121 -36 -49 32 -67 111 -39
165 20 39 89 75 123 64 8 -2 18 -4 23 -4z m-202 -80 c3 0 0 -5 -7 -12 -8 -8
-8 -17 -1 -31 10 -18 8 -18 -23 -12 -18 4 -42 12 -52 18 -19 10 -19 10 2 27
11 10 18 20 15 23 -3 4 9 2 28 -3 19 -6 36 -10 38 -10z m151 -84 c0 -2 -8 -10
-17 -17 -16 -13 -17 -12 -4 4 13 16 21 21 21 13z m-455 -66 c9 -17 21 -28 27
-24 6 4 9 1 6 -6 -2 -6 22 -37 54 -68 53 -52 75 -84 46 -66 -7 4 -8 3 -4 -4 4
-6 13 -9 21 -5 9 3 15 -1 15 -8 0 -22 -17 -42 -29 -35 -7 4 -9 1 -5 -8 4 -11
-4 -17 -32 -22 -30 -5 -40 -3 -50 11 -8 10 -15 17 -17 14 -2 -2 -13 -20 -25
-39 -12 -19 -22 -31 -22 -26 0 5 9 24 20 42 21 33 21 33 1 43 -28 15 -36 14
-21 -5 11 -12 11 -15 -1 -12 -8 2 -13 -2 -12 -9 2 -8 -4 -10 -14 -6 -12 5 -14
3 -8 -8 7 -11 6 -12 -7 -2 -12 11 -17 9 -26 -12 -6 -13 -7 -27 -3 -29 5 -3 11
-15 14 -26 3 -11 1 -18 -4 -14 -5 3 -9 0 -9 -5 0 -18 -23 -12 -55 14 -24 19
-26 24 -12 25 14 0 16 4 7 19 -13 26 -13 94 2 126 12 27 24 32 31 13 3 -7 3 5
0 27 -4 36 -1 45 37 88 23 26 46 47 51 47 4 0 16 -14 24 -30z m262 -5 c-17
-16 -25 -30 -21 -38 5 -7 0 -6 -11 3 -17 14 -18 13 -12 -4 6 -15 5 -17 -6 -7
-11 8 -18 7 -31 -7 -9 -10 -13 -22 -9 -26 5 -4 4 -7 -2 -6 -22 5 -27 -1 -14
-17 11 -15 9 -14 -9 1 -12 11 -21 20 -20 22 13 11 153 104 157 104 3 0 -7 -12
-22 -25z m-193 -459 c23 -34 83 -158 134 -277 82 -191 102 -249 88 -249 -2 0
-11 -3 -20 -6 -13 -5 -16 3 -16 49 0 64 -24 102 -73 115 -32 8 -33 11 -109
238 -79 233 -90 272 -61 220 8 -16 34 -57 57 -90z m149 -8 c-21 -23 -56 -20
-61 5 -2 11 8 32 24 48 l28 29 13 -32 c12 -27 11 -33 -4 -50z m-260 -59 c-8
-8 -17 -7 -34 2 l-24 13 25 6 c29 8 49 -5 33 -21z m260 -12 c-9 -16 -26 12
-18 30 7 17 8 17 15 -2 4 -11 5 -24 3 -28z m91 -153 c3 -8 2 -12 -4 -9 -6 3
-10 10 -10 16 0 14 7 11 14 -7z m-293 -6 c3 -17 26 -173 25 -175 -1 -1 -11 18
-23 43 -12 25 -17 41 -10 38 7 -4 5 1 -4 12 -19 22 -32 68 -22 78 6 6 32 9 34
4z"/>
<path d="M3669 1733 c-13 -16 -12 -17 4 -4 16 13 21 21 13 21 -2 0 -10 -8 -17
-17z"/>
<path d="M3620 1685 c-13 -14 -21 -27 -18 -30 2 -3 14 9 27 25 26 37 23 39 -9
5z"/>
<path d="M3767 1632 c-19 -21 -22 -38 -8 -46 5 -4 7 4 3 16 -4 16 -2 19 8 13
8 -5 11 -4 7 2 -8 13 20 26 35 16 7 -3 8 -1 4 5 -10 17 -31 15 -49 -6z"/>
<path d="M3780 2314 c0 -8 5 -12 10 -9 6 4 8 11 5 16 -9 14 -15 11 -15 -7z"/>
<path d="M3820 2294 c0 -8 5 -12 10 -9 6 3 10 10 10 16 0 5 -4 9 -10 9 -5 0
-10 -7 -10 -16z"/>
<path d="M4185 1006 c-48 -29 -69 -63 -84 -136 -14 -65 -44 -120 -72 -127 -13
-4 -19 -14 -19 -32 0 -38 50 -181 63 -181 8 0 7 4 -1 12 -17 17 -15 31 11 62
52 63 78 85 92 80 8 -4 15 -1 15 6 0 8 8 10 23 6 31 -7 107 17 182 59 l62 34
14 -25 c13 -24 11 -28 -21 -58 -20 -17 -51 -44 -70 -59 -19 -16 1 -4 45 25 44
29 81 60 83 68 4 21 -63 122 -91 136 -12 6 -42 14 -67 18 -25 3 -39 3 -33 0 9
-4 6 -15 -12 -38 -14 -18 -28 -48 -31 -67 -9 -47 -22 -69 -40 -69 -8 0 -17 7
-20 15 -6 14 -8 13 -20 -2 -12 -17 -14 -17 -29 -2 -28 28 -29 88 -3 139 24 46
39 53 82 35 18 -8 19 -5 13 45 -9 76 -22 86 -72 56z"/>
<path d="M4258 883 c-20 -23 -51 -84 -45 -89 2 -3 10 9 17 26 7 17 23 39 36
49 13 11 24 22 24 25 0 12 -17 6 -32 -11z"/>
<path d="M3660 721 c0 -5 9 -7 20 -4 11 3 20 7 20 9 0 2 -9 4 -20 4 -11 0 -20
-4 -20 -9z"/>
<path d="M4141 508 c-51 -23 -42 -38 25 -38 46 0 60 15 39 43 -14 20 -9 20
-64 -5z"/>
</g>
</svg>
